<?xml version="1.0" encoding="UTF-8" standalone="no"?>
<!-- Created with Inkscape (http://www.inkscape.org/) -->

<svg
   xmlns:dc="http://purl.org/dc/elements/1.1/"
   xmlns:cc="http://creativecommons.org/ns#"
   xmlns:rdf="http://www.w3.org/1999/02/22-rdf-syntax-ns#"
   xmlns:svg="http://www.w3.org/2000/svg"
   xmlns="http://www.w3.org/2000/svg"
   xmlns:sodipodi="http://sodipodi.sourceforge.net/DTD/sodipodi-0.dtd"
   xmlns:inkscape="http://www.inkscape.org/namespaces/inkscape"
   width="231.81482mm"
   height="36.386311mm"
   viewBox="0 0 231.81482 36.386311"
   version="1.1"
   id="svg8"
   inkscape:version="0.92.5 (2060ec1f9f, 2020-04-08)"
   sodipodi:docname="synamen-logo.svg">
  <defs
     id="defs2" />
  <sodipodi:namedview
     id="base"
     pagecolor="#ffffff"
     bordercolor="#666666"
     borderopacity="1.0"
     inkscape:pageopacity="0.0"
     inkscape:pageshadow="2"
     inkscape:zoom="0.98994949"
     inkscape:cx="288.42404"
     inkscape:cy="55.037236"
     inkscape:document-units="mm"
     inkscape:current-layer="layer1"
     showgrid="false"
     fit-margin-top="0"
     fit-margin-left="0"
     fit-margin-right="0"
     fit-margin-bottom="0"
     inkscape:window-width="1920"
     inkscape:window-height="1019"
     inkscape:window-x="0"
     inkscape:window-y="30"
     inkscape:window-maximized="1"
     showguides="true"
     inkscape:guide-bbox="true" />
  <metadata
     id="metadata5">
    <rdf:RDF>
      <cc:Work
         rdf:about="">
        <dc:format>image/svg+xml</dc:format>
        <dc:type
           rdf:resource="http://purl.org/dc/dcmitype/StillImage" />
        <dc:title />
      </cc:Work>
    </rdf:RDF>
  </metadata>
  <g
     inkscape:label="Layer 1"
     inkscape:groupmode="layer"
     id="layer1"
     transform="translate(-40.723019,-128.991)">
    <path
       style="fill:#333333;fill-opacity:1;stroke-width:0.28222224"
       d="m 41.242236,163.09874 v -2.27851 l 9.666111,-5.6e-4 c 10.615206,-5.7e-4 10.909204,-0.043 12.166583,-1.75807 0.46886,-0.63954 0.520314,-0.94719 0.302284,-1.80741 -0.450172,-1.77597 -1.319913,-2.17109 -5.28013,-2.39865 -1.897111,-0.10901 -5.994205,-0.0655 -8.145699,-0.2212 -5.177887,0.0332 -5.684101,-0.62338 -6.493001,-1.10739 -1.031585,-1.01896 -2.523717,-2.9372 -2.706131,-5.20969 -0.236447,-2.94563 0.974023,-5.5566 3.173736,-6.84572 2.432342,-1.00541 1.795387,-0.33073 11.804932,-0.68908 l 10.581846,0.0473 0.04725,2.16523 v 2.21249 l -9.464104,0.17563 c -11.251182,0.20879 -10.569218,-0.62468 -11.318461,2.07226 -0.07185,0.98248 0.269995,1.25891 0.909295,1.76178 0.705394,0.55487 1.105001,0.59717 5.729663,0.60653 9.535008,0.0193 11.622205,0.45628 13.722935,2.87298 1.488333,1.71219 1.83271,2.69722 1.825585,5.22178 -0.0073,2.60425 -0.53692,3.95953 -2.147381,5.4956 -1.851014,1.7655 -1.747963,1.75137 -13.58031,1.86217 l -10.795,0.1011 z"
       id="path3804"
       inkscape:connector-curvature="0"
       sodipodi:nodetypes="cccccsccscccccsccssccccc" />
    <path
       style="fill:#333333;fill-opacity:1;stroke-width:0.28222224"
       d="m 79.624459,161.39537 v -3.94041 l -4.236703,-5.66106 c -5.17113,-6.90962 -7.61663,-10.58126 -7.61663,-11.08228 0,-0.28963 0.623664,-0.21139 2.658039,-0.21139 h 2.658043 l 2.75111,3.73945 c 1.513112,2.05669 3.512137,4.67486 4.442274,5.81814 l 1.691163,2.0787 0.514469,-0.66759 c 0.282959,-0.36717 2.174511,-2.98534 4.203449,-5.81814 l 3.688977,-5.15056 h 2.525127 c 1.874509,0 2.491718,-0.10655 2.491718,0.16384 0,0.58079 -2.901366,5.25177 -7.022146,10.94815 -2.0955,2.89673 -3.89259,5.5503 -3.993535,5.89684 -0.100946,0.34653 -0.196196,2.24931 -0.211667,4.2284 l -0.02813,3.59833 h -2.257778 -2.257778 z"
       id="path3802"
       inkscape:connector-curvature="0"
       sodipodi:nodetypes="cccssccsccccssscscccc" />
    <path
       style="fill:#333333;fill-opacity:1;stroke-width:0.28222224"
       d="m 97.122238,153.74612 c 0,-7.62959 0.102297,-11.7808 0.299381,-12.14906 0.426366,-0.79668 1.510916,-1.14569 2.450326,-0.78852 0.425785,0.16188 4.237825,3.82924 8.565755,8.05377 l 8.12304,7.92897 c 0,-3.51105 0.0323,-6.98133 0.0348,-9.84134 v -6.16748 h 2.25778 2.25778 v 11.80959 c 0,11.08252 -0.0318,11.83835 -0.51611,12.27666 -0.65867,0.59609 -1.98175,0.59858 -2.87832,0.005 -0.38379,-0.2539 -4.0267,-3.77241 -8.09536,-7.81891 -4.06867,-4.04649 -7.47911,-7.27574 -7.57875,-7.17609 -0.0996,0.0996 -0.25054,3.61815 -0.33531,7.81891 l -0.15414,7.63775 h -2.215445 -2.215457 z"
       id="path3800"
       inkscape:connector-curvature="0"
       sodipodi:nodetypes="sccscccccsccccccccs" />
    <path
       style="fill:#abd315;fill-opacity:1;stroke-width:0.28222224"
       d="m 123.86307,165.17143 c -0.24637,-0.24637 11.83511,-20.60527 17.90632,-30.17453 2.68455,-4.23132 3.35815,-4.96169 5.24492,-5.68694 1.02995,-0.39591 1.38373,-0.4122 2.39191,-0.11014 2.27017,0.68016 2.57405,1.12171 13.79963,20.05129 7.59373,12.80524 9.07065,15.4396 8.85324,15.79138 -0.22688,0.36709 -6.33385,0.39537 -7.285,0.0337 -0.37547,-0.14275 -0.9364,-0.6825 -1.24651,-1.19944 -1.15929,-1.93252 -13.55356,-22.15293 -14.27106,-23.28228 -0.41083,-0.64664 -0.86661,-1.24966 -1.01284,-1.34004 -0.29541,-0.18257 -2.10882,2.61326 -9.46561,14.59362 -7.18203,11.69576 -6.77109,11.10064 -7.80851,11.30812 -1.12494,0.22499 -6.88439,0.23733 -7.10649,0.0152 z"
       id="path3798"
       inkscape:connector-curvature="0" />
    <path
       style="fill:#333333;fill-opacity:1;stroke-width:0.28222224"
       d="m 174.81511,164.92251 c 0,-1.28306 5.14685,-21.65192 5.74164,-22.80213 0.54373,-1.05145 2.06343,-1.71933 3.05466,-1.34246 0.98837,0.37577 2.54749,2.90296 6.48727,10.51524 1.82707,3.53017 3.42542,6.35453 3.5519,6.27636 0.12648,-0.0782 1.82217,-3.19353 3.7682,-6.92302 3.83568,-7.35094 4.72559,-8.81986 5.8455,-9.64882 1.12443,-0.68014 2.25457,-0.4048 2.98637,0.61517 0.80501,1.29856 4.3097,15.0893 5.87683,22.80572 l 0.18628,0.91722 h -2.52953 c -2.39514,0 -2.53668,-0.0337 -2.66425,-0.635 -2.35908,-11.11831 -3.11337,-14.4995 -3.27122,-14.66368 -0.10565,-0.10988 -1.90559,3.04533 -3.99986,7.01158 -2.09427,3.96625 -4.11065,7.4534 -4.48083,7.74923 -0.73562,0.58787 -2.29204,0.70782 -3.15961,0.24351 -0.71659,-0.38351 -1.32928,-1.38579 -4.4781,-7.32564 -3.31512,-6.25356 -4.28081,-7.96361 -4.41908,-7.82534 -0.0607,0.0607 -0.80367,3.38247 -1.65104,7.3817 -0.84736,3.99923 -1.68861,7.44959 -1.86944,7.66748 -0.23131,0.27871 -0.98789,0.39616 -2.552,0.39616 -1.56975,0 -1.38598,0.0319 -2.47553,0.007 0.0492,-0.56662 -0.0381,0.19393 0.0518,-0.42028 z"
       id="path3796"
       inkscape:connector-curvature="0" />
    <path
       style="fill:#333333;fill-opacity:1;stroke-width:0.28222224"
       d="m 214.80891,153.05912 v -12.27666 h 10.58333 10.58334 v 2.39888 2.39889 h -8.18445 -8.18444 v 7.62 7.62 h 8.18444 8.18445 v 2.25778 2.25778 h -10.58334 -10.58333 z"
       id="path3794"
       inkscape:connector-curvature="0" />
    <path
       style="fill:#333333;fill-opacity:1;stroke-width:0.28222224"
       d="m 238.51558,153.74612 c 0,-7.62959 0.10229,-11.7808 0.29938,-12.14906 0.42637,-0.79668 1.51091,-1.14569 2.45033,-0.78852 0.42578,0.16188 4.21003,3.8579 8.56575,8.05377 l 8.15909,7.85967 c -0.009,-3.37315 -0.004,-6.89933 -0.001,-9.77204 v -6.16748 h 2.25778 2.25778 v 11.80959 c 0,11.08252 -0.0318,11.83835 -0.51611,12.27666 -0.65867,0.59609 -1.98175,0.59858 -2.87832,0.005 -0.38379,-0.2539 -4.0267,-3.77241 -8.09537,-7.81891 -4.06866,-4.04649 -7.47909,-7.27574 -7.57874,-7.17609 -0.0996,0.0996 -0.25053,3.61815 -0.33531,7.81891 l -0.15414,7.63775 h -2.21545 -2.21545 z"
       id="path3792"
       inkscape:connector-curvature="0"
       sodipodi:nodetypes="sccscccccsccssscccs" />
    <path
       style="fill:#333333;fill-opacity:1;stroke-width:0.28222224"
       d="m 220.73558,152.91801 v -2.25778 h 7.05555 7.05556 v 2.25778 2.25778 h -7.05556 -7.05555 z"
       id="path3790"
       inkscape:connector-curvature="0" />
    <text
       xml:space="preserve"
       style="font-style:normal;font-weight:normal;font-size:10.58333302px;line-height:1.25;font-family:sans-serif;letter-spacing:0px;word-spacing:0px;fill:#000000;fill-opacity:1;stroke:none;stroke-width:0.26458332"
       x="266.36749"
       y="141.58278"
       id="text4623"><tspan
         sodipodi:role="line"
         id="tspan4621"
         x="266.36749"
         y="151.11577"
         style="stroke-width:0.26458332" /></text>
    <text
       xml:space="preserve"
       style="font-style:normal;font-weight:normal;font-size:10.58333302px;line-height:1.25;font-family:sans-serif;letter-spacing:0px;word-spacing:0px;fill:#333333;fill-opacity:1;stroke:none;stroke-width:0.26458332;"
       x="264.39639"
       y="146.49385"
       id="text4631"><tspan
         sodipodi:role="line"
         id="tspan4629"
         x="264.39639"
         y="146.49385"
         style="font-style:normal;font-variant:normal;font-weight:normal;font-stretch:normal;font-size:11.28888893px;font-family:sans-serif;-inkscape-font-specification:sans-serif;stroke-width:0.26458332;fill:#333333;fill-opacity:1;">®</tspan></text>
    <text
       xml:space="preserve"
       style="font-style:normal;font-weight:normal;font-size:10.58333302px;line-height:1.25;font-family:sans-serif;letter-spacing:0px;word-spacing:0px;fill:#000000;fill-opacity:1;stroke:none;stroke-width:0.26458332"
       x="281.97025"
       y="148.07738"
       id="text4635"><tspan
         sodipodi:role="line"
         id="tspan4633"
         x="281.97025"
         y="157.61037"
         style="stroke-width:0.26458332" /></text>
  </g>
</svg>
